# xmcd
#
# Track frame offsets: 
#        150
#        11042
#        24052
#        35495
#        47927
#        60340
#        71695
#        84917
#        95992
#        105775
#        116770
#        126080
#        138727
#        151025
#        162040
#        172855
#        182075
#        192282
#        204545
#        224892
#
# Disc length: 3147 seconds
#
# Revision: 2
# Processed by: cddbd v1.5.2PL0 Copyright (c) Steve Scherf et al.
# Submitted via: ExactAudioCopyFreeDBPlugin 1.0
#
DISCID=0f0c4914
DTITLE=Various Artist - Crescent City Soul:  Let the Good Times Roll
DYEAR=2002
DGENRE=Rhythm and Blues
TTITLE0=Shirley and Lee - Let the Good Times Roll
TTITLE1=Professor Longhair - Mardi Gras in New Orleans
TTITLE2=Lloyd Price - Lawdy Miss Clawdy
TTITLE3=The Spiders - I Didn't Want to Do It
TTITLE4=Smiley Lewis - I Hear You Knocking
TTITLE5=Archibald - Stack-a-Lee, Part 1
TTITLE6=Clarence "Bon Ton" Garlow - New Bon-Ton Roula
TTITLE7=Lee Dorsey - Ya Ya
TTITLE8=Little Richard - Long Tall Sally
TTITLE9=Ruth Durand - I'm Wise
TTITLE10=Roy Brown - Let the Four Winds Blow
TTITLE11=Shirley and Lee - Feel So Good
TTITLE12=Earl King - Trick Bag
TTITLE13=Barbara George - I Know (You Don't Love Me No More)
TTITLE14=Prince La La - She Put the Hurt on Me
TTITLE15=The Spiders - You're the One
TTITLE16=Ernie K-Doe - Real Man
TTITLE17=Aaron Neville - Tell it Like it Is
TTITLE18=Earl King - Come On, Parts 1 and 2
TTITLE19=Amos Milburn - Chicken Shack Boogie
EXTD=EMI Records 37449\n© 2002
EXTT0=
EXTT1=
EXTT2=
EXTT3=
EXTT4=
EXTT5=
EXTT6=
EXTT7=
EXTT8=
EXTT9=
EXTT10=
EXTT11=
EXTT12=
EXTT13=
EXTT14=
EXTT15=
EXTT16=
EXTT17=
EXTT18=
EXTT19=
PLAYORDER=
